<?xml version="1.0" encoding="UTF-8" standalone="no"?><!DOCTYPE svg PUBLIC "-//W3C//DTD SVG 1.1//EN" "http://www.w3.org/Graphics/SVG/1.1/DTD/svg11.dtd"><svg width="100%" height="100%" viewBox="0 0 600 600" version="1.1" xmlns="http://www.w3.org/2000/svg" xmlns:xlink="http://www.w3.org/1999/xlink" xml:space="preserve" xmlns:serif="http://www.serif.com/" style="fill-rule:evenodd;clip-rule:evenodd;stroke-linejoin:round;stroke-miterlimit:2;"><path d="M399.127,234.729c5.909,-1.619 10.612,-0.918 11.838,1.391c0.915,1.723 0.888,5.906 -2.201,12.014c-3.356,6.632 -9.083,13.302 -16.125,18.781c-2.488,1.932 -4.83,3.491 -6.991,4.745c5.82,-11.411 10.338,-23.78 13.479,-36.931Zm-31.997,52.091l9.981,-2.568c6.634,-1.708 13.746,-5.414 20.571,-10.719c7.993,-6.217 14.543,-13.888 18.444,-21.598c3.97,-7.849 4.725,-14.868 2.125,-19.764c-3.489,-6.57 -12.573,-8.589 -23.939,-4.682l-2.187,0.753l-0.511,2.275c-3.912,17.4 -10.314,33.372 -19.03,47.477l-5.454,8.826Z" style="fill:#046000;fill-rule:nonzero;"/><path d="M191.514,197.067c0.578,-0.623 1.538,-1.363 2.813,-1.363l196.656,-0c1.281,-0 2.241,0.743 2.823,1.369c1.231,1.322 1.89,3.335 1.764,5.384c-0.251,4.039 -0.643,8.153 -1.169,12.226l-0.756,5.845l5.71,-1.219c10.988,-2.344 19.49,0.46 23.329,7.696c7.117,13.406 -3.362,36.963 -23.357,52.513c-9.613,7.475 -19.93,11.96 -29.053,12.631c-1.816,0.135 -3.503,0.118 -5.294,-0.083l-2.178,-0.249l-1.423,1.685c-18.952,22.413 -43.357,34.756 -68.723,34.756c-53.482,-0 -98.69,-55.245 -102.922,-125.769c-0.125,-2.066 0.54,-4.094 1.78,-5.422Zm24.908,100.403c20.713,25.24 47.788,39.139 76.234,39.139c27.199,-0 53.266,-12.788 73.616,-36.064c1.534,0.077 3.035,0.05 4.607,-0.065c10.714,-0.789 22.608,-5.882 33.493,-14.343c23.841,-18.542 34.845,-45.659 25.599,-63.079l-0,0.002c-4.885,-9.208 -14.661,-13.779 -26.745,-12.76c0.246,-2.45 0.446,-4.9 0.595,-7.324c0.271,-4.37 -1.184,-8.606 -3.989,-11.624c-2.402,-2.58 -5.542,-4.002 -8.849,-4.002l-196.656,0c-3.299,0 -6.437,1.419 -8.834,3.992c-2.812,3.019 -4.276,7.267 -4.013,11.653c2.168,36.109 14.577,69.659 34.942,94.475Z" style="fill:#046000;fill-rule:nonzero;"/><path d="M261.071,311.402c0.569,-0 1.081,-0.213 1.481,-0.616c0.391,-0.391 0.609,-0.908 0.609,-1.456c0,-0.561 -0.221,-1.106 -0.606,-1.494c-0.777,-0.79 -2.083,-0.796 -2.925,-0.001c-0.383,0.387 -0.603,0.933 -0.603,1.495c-0,0.55 0.215,1.068 0.603,1.453c0.384,0.387 0.923,0.619 1.441,0.619Z" style="fill:#046000;fill-rule:nonzero;"/><path d="M276.961,303.438c0.57,-0 1.083,-0.213 1.479,-0.614c0.395,-0.392 0.61,-0.909 0.61,-1.456c0,-0.561 -0.22,-1.107 -0.606,-1.495c-0.776,-0.789 -2.081,-0.796 -2.924,-0.001c-0.383,0.388 -0.603,0.933 -0.603,1.496c-0,0.548 0.215,1.066 0.603,1.454c0.385,0.385 0.922,0.616 1.441,0.616Z" style="fill:#046000;fill-rule:nonzero;"/><path d="M332.832,285.104c0.533,0 1.044,-0.22 1.409,-0.591c0.419,-0.362 0.678,-0.929 0.678,-1.481c-0,-0.512 -0.195,-1.004 -0.621,-1.507c-0.402,-0.378 -0.966,-0.579 -1.555,-0.563c-0.545,0.02 -1.044,0.236 -1.357,0.578c-0.424,0.433 -0.647,0.949 -0.647,1.492c0,0.619 0.315,1.157 0.609,1.454c0.388,0.393 0.929,0.618 1.484,0.618Z" style="fill:#046000;fill-rule:nonzero;"/><path d="M312.441,294.578c0.543,-0 1.056,-0.218 1.439,-0.61c0.406,-0.41 0.647,-0.968 0.647,-1.494c-0,-0.577 -0.239,-1.103 -0.647,-1.459c-0.805,-0.812 -2.116,-0.812 -2.915,-0.003c-0.395,0.392 -0.611,0.91 -0.611,1.462c-0,0.518 0.232,1.075 0.582,1.425c0.369,0.43 0.917,0.679 1.505,0.679Z" style="fill:#046000;fill-rule:nonzero;"/><path d="M326.177,307.515c0.498,-0 1.026,-0.213 1.485,-0.614c0.385,-0.389 0.607,-0.934 0.607,-1.494c0,-0.587 -0.239,-1.14 -0.594,-1.439c-0.362,-0.395 -0.87,-0.618 -1.429,-0.628c-0.554,-0.027 -1.098,0.198 -1.439,0.546c-0.427,0.374 -0.671,0.928 -0.671,1.521c-0,0.582 0.236,1.136 0.602,1.453c0.405,0.411 0.944,0.655 1.439,0.655Z" style="fill:#046000;fill-rule:nonzero;"/><path d="M332.873,290.406c-0.565,-0.031 -1.097,0.197 -1.44,0.547c-0.426,0.373 -0.67,0.928 -0.67,1.521c-0,0.581 0.235,1.135 0.601,1.453c0.407,0.411 0.945,0.655 1.44,0.655c0.498,-0 1.027,-0.214 1.485,-0.614c0.386,-0.391 0.607,-0.935 0.607,-1.494c0,-0.586 -0.239,-1.141 -0.593,-1.441c-0.364,-0.394 -0.87,-0.617 -1.43,-0.627Z" style="fill:#046000;fill-rule:nonzero;"/><path d="M294.412,312.957c0.56,-0 1.1,-0.224 1.475,-0.61c0.389,-0.387 0.611,-0.934 0.611,-1.502c-0,-0.526 -0.227,-1.069 -0.608,-1.453c-0.741,-0.751 -2.174,-0.75 -2.919,-0.001c-0.39,0.396 -0.607,0.913 -0.607,1.454c0,0.585 0.212,1.104 0.605,1.497c0.377,0.384 0.915,0.615 1.443,0.615Z" style="fill:#046000;fill-rule:nonzero;"/><path d="M282.117,321.69c0.533,-0 1.045,-0.218 1.441,-0.616c0.381,-0.392 0.6,-0.937 0.6,-1.492c0,-0.523 -0.2,-1.072 -0.576,-1.507c-0.824,-0.781 -2.178,-0.775 -2.947,0.01c-0.364,0.362 -0.566,0.894 -0.566,1.497c0,0.563 0.181,1.057 0.588,1.516c0.441,0.393 0.933,0.592 1.46,0.592Z" style="fill:#046000;fill-rule:nonzero;"/><path d="M294.792,319.662c-0.365,0.361 -0.565,0.893 -0.565,1.495c-0,0.563 0.181,1.059 0.586,1.518c0.444,0.392 0.933,0.591 1.459,0.591c0.536,-0 1.047,-0.217 1.443,-0.617c0.382,-0.391 0.601,-0.935 0.601,-1.492c0,-0.522 -0.199,-1.069 -0.576,-1.505c-0.826,-0.783 -2.176,-0.776 -2.948,0.01Z" style="fill:#046000;fill-rule:nonzero;"/><path d="M310.915,320.113c0.536,-0 1.046,-0.217 1.442,-0.615c0.382,-0.393 0.6,-0.937 0.6,-1.493c-0,-0.522 -0.2,-1.07 -0.575,-1.506c-0.826,-0.781 -2.179,-0.774 -2.949,0.009c-0.364,0.362 -0.564,0.894 -0.564,1.497c-0,0.564 0.18,1.059 0.586,1.517c0.441,0.394 0.933,0.591 1.46,0.591Z" style="fill:#046000;fill-rule:nonzero;"/><path d="M313.494,303.852c0,0.562 0.182,1.057 0.588,1.516c0.441,0.392 0.933,0.592 1.459,0.592c0.537,-0 1.047,-0.218 1.441,-0.617c0.383,-0.391 0.603,-0.936 0.603,-1.491c-0,-0.524 -0.201,-1.072 -0.576,-1.508c-0.826,-0.78 -2.178,-0.775 -2.949,0.01c-0.365,0.363 -0.566,0.895 -0.566,1.498Z" style="fill:#046000;fill-rule:nonzero;"/><path d="M354.255,264.058c0.543,0 1.055,-0.219 1.413,-0.587c0.403,-0.353 0.635,-0.893 0.635,-1.48c-0,-0.563 -0.222,-1.109 -0.609,-1.497c-0.381,-0.388 -0.939,-0.608 -1.514,-0.592c-0.557,0.009 -1.073,0.231 -1.404,0.591c-0.385,0.389 -0.607,0.935 -0.607,1.498c-0,0.531 0.228,1.075 0.604,1.451c0.384,0.392 0.923,0.616 1.482,0.616Z" style="fill:#046000;fill-rule:nonzero;"/><path d="M352.706,282.005c0.543,-0 1.056,-0.218 1.461,-0.635c0.388,-0.445 0.586,-0.94 0.586,-1.47c-0,-0.587 -0.241,-1.144 -0.597,-1.445c-0.362,-0.392 -0.87,-0.614 -1.428,-0.623c-0.582,-0.003 -1.095,0.198 -1.46,0.568c-0.406,0.406 -0.65,0.967 -0.65,1.5c-0,0.542 0.217,1.059 0.583,1.426c0.369,0.431 0.917,0.679 1.505,0.679Z" style="fill:#046000;fill-rule:nonzero;"/><path d="M345.567,300.323c0.539,0 1.051,-0.22 1.383,-0.568c0.441,-0.331 0.703,-0.894 0.703,-1.503c0,-0.559 -0.22,-1.105 -0.617,-1.507c-0.399,-0.377 -0.979,-0.583 -1.55,-0.563c-0.546,0.019 -1.046,0.234 -1.358,0.574c-0.386,0.391 -0.607,0.937 -0.607,1.496c0,0.545 0.214,1.101 0.563,1.454c0.388,0.392 0.928,0.617 1.483,0.617Z" style="fill:#046000;fill-rule:nonzero;"/><path d="M366.1,231.683c0.538,-0 1.051,-0.221 1.382,-0.568c0.441,-0.333 0.704,-0.894 0.704,-1.504c-0,-0.56 -0.221,-1.104 -0.617,-1.506c-0.4,-0.379 -0.974,-0.584 -1.55,-0.564c-0.546,0.019 -1.046,0.234 -1.358,0.575c-0.387,0.391 -0.606,0.935 -0.606,1.495c-0,0.545 0.213,1.101 0.562,1.455c0.388,0.392 0.927,0.617 1.483,0.617Z" style="fill:#046000;fill-rule:nonzero;"/><path d="M377.827,242.073c0.54,0 1.051,-0.216 1.44,-0.61c0.386,-0.389 0.606,-0.934 0.606,-1.494c0,-0.551 -0.215,-1.07 -0.595,-1.444c-0.363,-0.393 -0.899,-0.619 -1.467,-0.619l-0.004,0c-0.576,0 -1.115,0.227 -1.461,0.603c-0.391,0.389 -0.606,0.908 -0.606,1.46c-0,0.582 0.235,1.136 0.557,1.401c0.336,0.446 0.893,0.703 1.53,0.703Z" style="fill:#046000;fill-rule:nonzero;"/><path d="M373.491,259.157c0.518,0 1.029,-0.233 1.439,-0.654c0.391,-0.395 0.608,-0.911 0.608,-1.454c-0,-0.585 -0.241,-1.141 -0.595,-1.439c-0.354,-0.387 -0.86,-0.604 -1.425,-0.612c-0.568,-0.037 -1.116,0.198 -1.463,0.554c-0.407,0.407 -0.652,0.965 -0.652,1.497c-0,0.58 0.239,1.135 0.607,1.451c0.399,0.412 0.954,0.657 1.481,0.657Z" style="fill:#046000;fill-rule:nonzero;"/><path d="M304.955,86.053c-1.745,2.188 -3.534,4.163 -5.746,6.131c-2.227,2.065 -4.644,4.167 -7.181,6.36c-4.968,4.451 -10.506,9.514 -14.663,16.51c-4.218,6.936 -6.06,15.823 -4.904,23.612c1.004,7.892 4.294,14.865 8.573,20.635c4.375,5.727 9.658,10.513 15.762,13.682c-7.269,-11.459 -12.005,-23.888 -11.348,-34.965c0.354,-5.511 2.038,-10.188 5.099,-14.383c3.045,-4.247 7.449,-8.227 12.378,-12.536c9.506,-8.118 22.885,-21.174 21.192,-39.423c-0.528,-4.426 -2.365,-8.828 -5.154,-12.077c-2.763,-3.283 -6.081,-5.499 -9.259,-7.1c-6.462,-3.174 -12.498,-4.728 -18.342,-8.334c3.224,6.254 9.386,10.549 13.694,15.005c4.585,4.431 6.643,8.821 6.126,13.242c-0.349,4.435 -2.813,9.314 -6.227,13.641Z" style="fill:#046000;fill-rule:nonzero;"/><path d="M260.638,163.743c-5.443,-7.395 -9.401,-15.486 -10.396,-23.704c-0.993,-8.205 1.529,-16.037 6.838,-22.025c5.491,-6.2 12.979,-12.232 18.257,-20.339c2.627,-4.011 4.948,-8.82 4.833,-14.153c-0.236,-5.416 -3.62,-9.735 -7.443,-12.136c2.649,3.811 4.24,8.04 3.412,11.899c-0.737,3.858 -3.212,7.268 -5.923,10.467c-5.654,6.451 -12.675,11.588 -19.363,18.777c-3.238,3.876 -5.844,8.509 -7.094,13.559c-1.16,5.049 -1.2,10.357 0.149,15.187c2.527,9.727 8.953,17.62 16.73,22.468Z" style="fill:#046000;fill-rule:nonzero;"/><path d="M312.958,123.984c-2.464,3.777 -4.105,8.223 -4.504,12.759c-0.351,4.527 0.215,9.045 1.767,13.09c2.968,8.12 8.689,14.68 15.584,18.746c-4.534,-6.592 -7.983,-13.501 -9.385,-20.548c-1.421,-7.052 -0.247,-13.886 3.432,-19.442c3.693,-5.57 9.945,-10.476 15.319,-16.641c2.702,-3.072 5.208,-6.647 6.647,-10.753c1.402,-4.114 1.42,-8.633 -0.049,-12.394c-0.504,8.3 -5.366,13.778 -11.105,18.518c-5.672,4.881 -12.55,9.118 -17.706,16.665Z" style="fill:#046000;fill-rule:nonzero;"/><g transform="matrix(1,0,0,1,-149.525,31.5589)"><g transform="matrix(0.936014,-0.351962,0.351962,0.936014,-128.206,106.404)"><text x="228.541px" y="405.808px" style="font-family:'Avenir-Black', 'Avenir', sans-serif;font-weight:800;font-size:64px;fill:#005c13;">s</text></g><g transform="matrix(0.966922,-0.255073,0.255073,0.966922,-92.3674,78.4315)"><text x="256.217px" y="395.348px" style="font-family:'Avenir-Black', 'Avenir', sans-serif;font-weight:800;font-size:64px;fill:#005c13;">e</text></g><g transform="matrix(0.983412,-0.181386,0.181386,0.983412,-65.1805,59.3382)"><text x="291.834px" y="386.035px" style="font-family:'Avenir-Black', 'Avenir', sans-serif;font-weight:800;font-size:64px;fill:#005c13;">n</text></g><g transform="matrix(0.991773,-0.128011,0.128011,0.991773,-45.8777,45.1051)"><text x="327.966px" y="379.468px" style="font-family:'Avenir-Black', 'Avenir', sans-serif;font-weight:800;font-size:64px;fill:#005c13;">z</text></g><g transform="matrix(0.99642,-0.0845398,0.0845398,0.99642,-30.4463,31.7504)"><text x="359.673px" y="375.372px" style="font-family:'Avenir-Black', 'Avenir', sans-serif;font-weight:800;font-size:64px;fill:#005c13;">a</text></g><g transform="matrix(0.999017,-0.0443339,0.0443339,0.999017,-16.1274,17.8309)"><text x="393.934px" y="372.507px" style="font-family:'Avenir-Black', 'Avenir', sans-serif;font-weight:800;font-size:64px;">z</text></g><g transform="matrix(0.999983,-0.00579555,0.00579555,0.999983,-2.14328,2.47438)"><text x="425.87px" y="371.049px" style="font-family:'Avenir-Black', 'Avenir', sans-serif;font-weight:800;font-size:64px;">u</text></g><g transform="matrix(0.999456,0.0329845,-0.0329845,0.999456,12.4846,-15.0571)"><text x="462.608px" y="370.866px" style="font-family:'Avenir-Black', 'Avenir', sans-serif;font-weight:800;font-size:64px;">c</text></g><g transform="matrix(0.997611,0.0690888,-0.0690888,0.997611,26.8692,-33.2091)"><text x="493.533px" y="371.839px" style="font-family:'Avenir-Black', 'Avenir', sans-serif;font-weight:800;font-size:64px;">c</text></g><g transform="matrix(0.993897,0.110316,-0.110316,0.993897,44.4428,-55.5469)"><text x="524.208px" y="373.864px" style="font-family:'Avenir-Black', 'Avenir', sans-serif;font-weight:800;font-size:64px;">h</text></g><g transform="matrix(0.986428,0.164197,-0.164197,0.986428,69.6626,-86.9618)"><text x="560.857px" y="377.903px" style="font-family:'Avenir-Black', 'Avenir', sans-serif;font-weight:800;font-size:64px;">e</text></g><g transform="matrix(0.974778,0.223178,-0.223178,0.974778,100.759,-123.556)"><text x="597.017px" y="384.001px" style="font-family:'Avenir-Black', 'Avenir', sans-serif;font-weight:800;font-size:64px;">r</text></g><g transform="matrix(0.955312,0.2956,-0.2956,0.955312,142.818,-166.315)"><text x="621.472px" y="389.192px" style="font-family:'Avenir-Black', 'Avenir', sans-serif;font-weight:800;font-size:64px;">o</text></g></g><text x="238.68px" y="473.964px" style="font-family:'BradleyHandITCTT-Bold', 'Bradley Hand';font-weight:700;font-size:60.262px;">cafè</text></svg>